<svg width="154" height="97" viewBox="0 0 154 97" fill="none" xmlns="http://www.w3.org/2000/svg">
<g filter="url(#filter0_d_404_3020)">
<path d="M91.1371 44.5687C91.1371 68.0799 72.0776 87.1361 48.5674 87.1361C25.0571 87.1361 6 68.079 6 44.5687C6 21.0599 25.0574 2.00134 48.5674 2.00134C72.0771 2.00134 91.1371 21.0609 91.1371 44.5687Z" fill="#D9222A"/>
<path d="M105.717 2C94.7184 2 84.6958 6.17279 77.1411 13.0194C75.602 14.4159 74.1654 15.9213 72.8428 17.5242H81.4433C82.6208 18.9558 83.7047 20.4617 84.6887 22.0328H69.598C68.6904 23.4845 67.8713 24.9897 67.1454 26.5404H87.1398C87.8261 28.0071 88.4277 29.5118 88.9423 31.0471H65.3434C64.8478 32.5254 64.4346 34.0303 64.1062 35.5547H90.1778C90.8155 38.5166 91.1371 41.5381 91.1364 44.5681C91.1364 49.2956 90.3647 53.8433 88.9418 58.0903H65.3429C65.8561 59.6263 66.4575 61.1314 67.1443 62.5979H87.1393C86.4129 64.1491 85.5934 65.6545 84.6856 67.1067H69.5973C70.5807 68.6766 71.6649 70.1815 72.8426 71.6115H81.4412C80.1203 73.2175 78.6832 74.7245 77.1418 76.1204C84.6965 82.9658 94.7182 87.1367 105.718 87.1367C129.228 87.1367 148.287 68.0795 148.287 44.5693C148.287 21.0614 129.228 2.0019 105.718 2.0019" fill="#EE9F2D"/>
<path d="M142.612 68.2969C142.612 67.5383 143.226 66.9212 143.986 66.9212C144.746 66.9212 145.361 67.5383 145.361 68.2969C145.361 69.0555 144.746 69.6726 143.986 69.6726C143.226 69.6726 142.612 69.0555 142.612 68.2969ZM143.986 69.3422C144.563 69.342 145.031 68.8741 145.031 68.2969C145.031 67.7202 144.564 67.253 143.988 67.2525H143.986C143.41 67.2518 142.943 67.718 142.942 68.2938V68.2971C142.941 68.8741 143.408 69.342 143.985 69.3425C143.985 69.3422 143.986 69.3422 143.986 69.3422ZM143.8 68.9012H143.519V67.6927H144.029C144.135 67.6927 144.244 67.6927 144.338 67.7529C144.436 67.8191 144.491 67.9357 144.491 68.0562C144.491 68.1916 144.411 68.318 144.282 68.3673L144.504 68.9009H144.192L144.008 68.4226H143.801L143.8 68.9012ZM143.8 68.2158H143.957C144.015 68.2158 144.076 68.2208 144.129 68.1921C144.175 68.1625 144.199 68.107 144.199 68.0536C144.198 68.004 144.172 67.9583 144.131 67.9308C144.081 67.9002 144.003 67.9068 143.951 67.9068H143.8V68.2158ZM38.627 49.2293C38.1418 49.1729 37.9286 49.158 37.5955 49.158C34.976 49.158 33.6499 50.056 33.6499 51.8301C33.6499 52.9236 34.297 53.6193 35.3068 53.6193C37.1895 53.6193 38.5459 51.8268 38.627 49.2293ZM41.9876 57.0541H38.1587L38.2467 55.2338C37.0785 56.6721 35.5204 57.356 33.4028 57.356C30.8978 57.356 29.1806 55.3996 29.1806 52.5588C29.1806 48.2846 32.1677 45.7905 37.295 45.7905C37.8186 45.7905 38.4907 45.8377 39.1782 45.9257C39.3214 45.3468 39.3591 45.0985 39.3591 44.7872C39.3591 43.6233 38.5538 43.1895 36.3948 43.1895C34.1341 43.1639 32.2694 43.7281 31.5037 43.9799C31.5521 43.6885 32.144 40.0293 32.144 40.0293C34.4471 39.3544 35.9658 39.1004 37.6754 39.1004C41.6433 39.1004 43.7453 40.8821 43.7413 44.2493C43.7491 45.1516 43.5997 46.265 43.3668 47.7284C42.9658 50.274 42.1052 55.7252 41.9876 57.0541ZM27.2472 57.0541H22.626L25.273 40.4548L19.3622 57.0541H16.2131L15.8237 40.5496L13.0413 57.0541H8.71533L12.3287 35.4607H18.9737L19.3769 47.5475L23.4301 35.4607H30.8212L27.2472 57.0541ZM111.426 49.2293C110.943 49.1729 110.729 49.158 110.397 49.158C107.778 49.158 106.452 50.056 106.452 51.8301C106.452 52.9236 107.098 53.6193 108.108 53.6193C109.991 53.6193 111.348 51.8268 111.426 49.2293ZM114.79 57.0541H110.961L111.048 55.2338C109.88 56.6721 108.321 57.356 106.205 57.356C103.699 57.356 101.984 55.3996 101.984 52.5588C101.984 48.2846 104.969 45.7905 110.097 45.7905C110.621 45.7905 111.292 45.8377 111.979 45.9257C112.122 45.3468 112.16 45.0985 112.16 44.7872C112.16 43.6233 111.355 43.1895 109.196 43.1895C106.935 43.1639 105.073 43.7281 104.304 43.9799C104.352 43.6885 104.947 40.0293 104.947 40.0293C107.25 39.3544 108.767 39.1004 110.475 39.1004C114.445 39.1004 116.547 40.8821 116.543 44.2493C116.55 45.1516 116.401 46.265 116.168 47.7284C115.769 50.274 114.907 55.7252 114.79 57.0541ZM62.5257 56.7874C61.261 57.1855 60.275 57.356 59.2057 57.356C56.8433 57.356 55.5539 55.9984 55.5539 53.4984C55.5202 52.7227 55.8937 50.6811 56.1873 48.8179C56.4541 47.1776 58.191 36.8352 58.191 36.8352H62.7847L62.248 39.4931H65.0224L64.3958 43.7134H61.6113C61.0777 47.0531 60.3179 51.213 60.3091 51.7644C60.3091 52.6694 60.7922 53.0647 61.8911 53.0647C62.4178 53.0647 62.8255 53.0108 63.1371 52.8987L62.5257 56.7874ZM76.6102 56.6451C75.0322 57.1274 73.5095 57.3605 71.896 57.3565C66.7538 57.3515 64.0733 54.6659 64.0733 49.5232C64.0733 43.5203 67.4835 39.1014 72.1123 39.1014C75.8997 39.1014 78.3186 41.5755 78.3186 45.4559C78.3186 46.7434 78.1526 48.0002 77.7523 49.7748H68.6047C68.2952 52.3219 69.9256 53.3834 72.5975 53.3834C74.2421 53.3834 75.7249 53.0445 77.374 52.2776L76.6102 56.6451ZM74.0282 46.2344C74.0535 45.8685 74.5155 43.1001 71.8908 43.1001C70.4274 43.1001 69.3811 44.2156 68.9549 46.2344H74.0282ZM44.7598 45.0447C44.7598 47.266 45.8369 48.7977 48.2795 49.9479C50.1511 50.8275 50.4404 51.0886 50.4404 51.8854C50.4404 52.9802 49.6154 53.4745 47.7865 53.4745C46.408 53.4745 45.1255 53.2591 43.6464 52.7815C43.6464 52.7815 43.0386 56.6519 43.0109 56.8372C44.0614 57.0665 44.9982 57.2785 47.8199 57.3565C52.6963 57.3565 54.9483 55.4999 54.9483 51.4872C54.9483 49.0742 54.0054 47.6583 51.6906 46.594C49.7529 45.7047 49.5307 45.5062 49.5307 44.6861C49.5307 43.7366 50.2983 43.2524 51.7923 43.2524C52.6994 43.2524 53.9385 43.3491 55.1124 43.5161L55.7704 39.4431C54.5738 39.2534 52.7596 39.1011 51.7034 39.1011C46.5334 39.1014 44.7439 41.8017 44.7598 45.0447ZM99.0872 39.5629C100.371 39.5629 101.567 39.8998 103.216 40.7299L103.972 36.0432C103.296 35.7773 100.912 34.2172 98.8934 34.2172C95.8008 34.2172 93.1866 35.7517 91.3475 38.2842C88.6656 37.3958 87.5632 39.1913 86.2117 40.9798L85.011 41.2594C85.1018 40.6706 85.1839 40.0855 85.1561 39.4936H80.9122C80.3324 44.9283 79.3048 50.4326 78.5002 55.8744L78.2906 57.0544H82.914C83.6856 52.0404 84.1084 48.8302 84.3655 46.6575L86.1064 45.689C86.3665 44.7219 87.1804 44.3947 88.8139 44.4343C88.5943 45.6219 88.4845 46.8273 88.4859 48.0351C88.4859 53.7799 91.5854 57.3567 96.5606 57.3567C97.8422 57.3567 98.9418 57.1879 100.645 56.7264L101.458 51.8035C99.9264 52.5579 98.6693 52.9127 97.531 52.9127C94.8444 52.9127 93.2188 50.9294 93.2188 47.6516C93.2188 42.8966 95.6367 39.5629 99.0872 39.5629Z" fill="black"/>
<path d="M28.5785 55.771H23.9563L26.6055 39.1737L20.6944 55.771H17.5444L17.155 39.2686L14.3726 55.771H10.0469L13.6602 34.1809H20.3053L20.4921 47.5468L24.9751 34.1809H32.1527L28.5785 55.771Z" fill="white"/>
<path d="M138.213 35.462L137.188 41.7011C135.924 40.038 134.567 38.8345 132.774 38.8345C130.442 38.8345 128.32 40.6024 126.931 43.2038C124.996 42.8026 122.995 42.1218 122.995 42.1218L122.994 42.1376C123.15 40.683 123.212 39.7958 123.198 39.4944H118.953C118.375 44.9291 117.348 50.4334 116.545 55.8752L116.333 57.0552H120.955C121.58 53.001 122.057 49.6347 122.41 46.9645C123.988 45.5378 124.779 44.2928 126.375 44.3758C125.668 46.0844 125.254 48.0523 125.254 50.0713C125.254 54.4615 127.475 57.3576 130.835 57.3576C132.529 57.3576 133.828 56.7737 135.096 55.4199L134.879 57.0524H139.251L142.771 35.4623L138.213 35.462ZM132.433 52.9967C130.86 52.9967 130.066 51.8328 130.066 49.5354C130.066 46.0837 131.553 43.6364 133.65 43.6364C135.237 43.6364 136.097 44.8468 136.097 47.0771C136.097 50.5582 134.586 52.9967 132.433 52.9967Z" fill="black"/>
<path d="M39.9567 47.95C39.4725 47.8941 39.2581 47.8791 38.9261 47.8791C36.3066 47.8791 34.9814 48.7772 34.9814 50.5508C34.9814 51.6426 35.6286 52.3405 36.6364 52.3405C38.521 52.3403 39.8777 50.548 39.9567 47.95ZM43.3189 55.772H39.49L39.577 53.9548C38.41 55.3904 36.8499 56.0772 34.7343 56.0772C32.2284 56.0772 30.512 54.1208 30.512 51.28C30.512 47.0038 33.4981 44.5114 38.6263 44.5114C39.1499 44.5114 39.822 44.5589 40.5088 44.6469C40.652 44.068 40.6897 43.8199 40.6897 43.5067C40.6897 42.3425 39.8853 41.9109 37.7264 41.9109C35.4647 41.8853 33.601 42.4495 32.8343 42.6985C32.8827 42.408 33.4746 38.7531 33.4746 38.7531C35.7768 38.0754 37.2974 37.8214 39.0048 37.8214C42.9739 37.8214 45.0766 39.604 45.0729 42.9684C45.0797 43.8745 44.9296 44.9872 44.6972 46.4484C44.2971 48.9916 43.4358 54.4459 43.3189 55.772ZM105.304 34.7629L104.547 39.4506C102.899 38.6215 101.701 38.2838 100.419 38.2838C96.9683 38.2838 94.5497 41.6176 94.5497 46.3718C94.5497 49.6494 96.1758 51.6319 98.8619 51.6319C100 51.6319 101.256 51.2781 102.788 50.5233L101.976 55.444C100.273 55.9081 99.1742 56.0772 97.8915 56.0772C92.9169 56.0772 89.8165 52.5001 89.8165 46.7553C89.8165 39.0363 94.0991 33.6412 100.224 33.6412C102.242 33.6415 104.626 34.4971 105.304 34.7629ZM112.76 47.95C112.276 47.8941 112.063 47.8791 111.729 47.8791C109.111 47.8791 107.785 48.7772 107.785 50.5508C107.785 51.6426 108.432 52.3405 109.441 52.3405C111.323 52.3403 112.681 50.548 112.76 47.95ZM116.122 55.772H112.293L112.381 53.9548C111.213 55.3904 109.653 56.0772 107.538 56.0772C105.033 56.0772 103.316 54.1208 103.316 51.28C103.316 47.0038 106.303 44.5114 111.429 44.5114C111.954 44.5114 112.625 44.5589 113.312 44.6469C113.455 44.068 113.493 43.8199 113.493 43.5067C113.493 42.3425 112.688 41.9109 110.53 41.9109C108.269 41.8853 106.404 42.4495 105.638 42.6985C105.686 42.408 106.279 38.7531 106.279 38.7531C108.581 38.0754 110.101 37.8214 111.808 37.8214C115.778 37.8214 117.88 39.604 117.875 42.9684C117.883 43.8745 117.734 44.9872 117.5 46.4484C117.102 48.9916 116.238 54.4459 116.122 55.772ZM63.8582 55.5062C62.5923 55.9043 61.6063 56.0772 60.5382 56.0772C58.1758 56.0772 56.8864 54.7193 56.8864 52.2193C56.8537 51.4418 57.2274 49.4021 57.5208 47.5391C57.7864 45.8966 59.5235 35.5552 59.5235 35.5552H64.1165L63.5805 38.2141H65.938L65.3105 42.4324H62.945C62.4114 45.7742 61.6495 49.9309 61.6416 50.4834C61.6416 51.3917 62.1256 51.7835 63.2236 51.7835C63.7503 51.7835 64.1575 51.7323 64.4696 51.6196L63.8582 55.5062ZM77.9424 55.3658C76.3654 55.8479 74.8408 56.0801 73.2283 56.0772C68.0858 56.0722 65.4056 53.3866 65.4056 48.2436C65.4056 42.2389 68.8155 37.8211 73.4445 37.8211C77.232 37.8211 79.6508 40.2943 79.6508 44.1766C79.6508 45.4652 79.4848 46.7219 79.0855 48.4955H69.9379C69.6282 51.0426 71.2585 52.1053 73.9307 52.1053C75.5741 52.1053 77.0581 51.765 78.7063 50.9962L77.9424 55.3658ZM75.3597 44.9523C75.3872 44.5876 75.8482 41.818 73.2223 41.818C71.7599 41.818 70.7136 42.9366 70.2877 44.9523H75.3597ZM46.0914 43.7654C46.0914 45.9867 47.1685 47.5165 49.6111 48.6684C51.4826 49.5479 51.7719 49.8095 51.7719 50.6063C51.7719 51.701 50.946 52.1949 49.1188 52.1949C47.7395 52.1949 46.4568 51.9796 44.9766 51.5022C44.9766 51.5022 44.3709 55.3727 44.3432 55.5576C45.3916 55.7869 46.3292 55.9963 49.1513 56.0772C54.0284 56.0772 56.2796 54.2206 56.2796 50.2088C56.2796 47.7947 55.3379 46.379 53.0219 45.3149C51.0852 44.4235 50.8608 44.2278 50.8608 43.4068C50.8608 42.4583 51.6306 41.97 53.1237 41.97C54.0298 41.97 55.2689 42.0698 56.4446 42.2368L57.1017 38.1629C55.9061 37.9731 54.0919 37.8211 53.0357 37.8211C47.865 37.8211 46.0764 40.5196 46.0914 43.7654ZM140.581 55.772H136.209L136.426 54.1374C135.158 55.4931 133.859 56.0772 132.165 56.0772C128.806 56.0772 126.586 53.181 126.586 48.7907C126.586 42.9499 130.03 38.0263 134.105 38.0263C135.898 38.0263 137.254 38.7583 138.517 40.4205L139.543 34.1817H144.101L140.581 55.772ZM133.765 51.7147C135.917 51.7147 137.428 49.2762 137.428 45.7972C137.428 43.5669 136.568 42.3565 134.98 42.3565C132.884 42.3565 131.395 44.8027 131.395 48.2555C131.395 50.5525 132.192 51.7147 133.765 51.7147ZM120.285 38.2143C119.706 43.649 118.679 49.1538 117.875 54.5922L117.663 55.7722H122.286C123.939 45.0355 124.339 42.9387 126.931 43.2015C127.344 41.0038 128.112 39.0792 128.685 38.1078C126.75 37.7047 125.669 38.7986 124.254 40.8765C124.365 39.9782 124.57 39.1057 124.529 38.2146L120.285 38.2143ZM82.2421 38.2143C81.6621 43.649 80.6345 49.1538 79.8311 54.5922L79.6205 55.7722H84.2448C85.896 45.0355 86.2951 42.9387 88.8857 43.2015C89.3007 41.0038 90.0693 39.0792 90.6403 38.1078C88.7067 37.7047 87.6246 38.7986 86.2107 40.8765C86.3224 39.9782 86.5247 39.1057 86.4863 38.2146L82.2421 38.2143ZM142.612 54.3973C142.611 53.6387 143.225 53.023 143.984 53.0221H143.986C144.745 53.0211 145.36 53.6353 145.361 54.3935V54.3973C145.361 55.1564 144.745 55.7715 143.986 55.772C143.227 55.7715 142.612 55.1564 142.612 54.3973ZM143.986 55.4419C144.563 55.4424 145.03 54.975 145.031 54.3987V54.3978C145.031 53.8208 144.564 53.3529 143.987 53.3524H143.986C143.409 53.3527 142.941 53.8205 142.941 54.3978C142.942 54.9745 143.409 55.4419 143.986 55.4419ZM143.8 54.9982H143.519V53.793H144.029C144.135 53.793 144.245 53.7952 144.337 53.8533C144.436 53.9204 144.492 54.0352 144.492 54.1554C144.492 54.2918 144.412 54.4191 144.281 54.4677L144.504 54.998H144.191L144.007 54.5215H143.8L143.8 54.9982ZM143.8 54.3155H143.955C144.014 54.3155 144.077 54.32 144.128 54.2918C144.175 54.2621 144.198 54.2061 144.198 54.1523C144.196 54.1025 144.171 54.0565 144.13 54.0283C144.082 54.0005 144.002 54.0084 143.949 54.0084H143.8L143.8 54.3155Z" fill="white"/>
</g>
<defs>
<filter id="filter0_d_404_3020" x="0.7" y="0.7" width="152.887" height="95.7366" filterUnits="userSpaceOnUse" color-interpolation-filters="sRGB">
<feFlood flood-opacity="0" result="BackgroundImageFix"/>
<feColorMatrix in="SourceAlpha" type="matrix" values="0 0 0 0 0 0 0 0 0 0 0 0 0 0 0 0 0 0 127 0" result="hardAlpha"/>
<feOffset dy="4"/>
<feGaussianBlur stdDeviation="2.65"/>
<feComposite in2="hardAlpha" operator="out"/>
<feColorMatrix type="matrix" values="0 0 0 0 0 0 0 0 0 0 0 0 0 0 0 0 0 0 1 0"/>
<feBlend mode="normal" in2="BackgroundImageFix" result="effect1_dropShadow_404_3020"/>
<feBlend mode="normal" in="SourceGraphic" in2="effect1_dropShadow_404_3020" result="shape"/>
</filter>
</defs>
</svg>
