<svg width="136" height="91" viewBox="0 0 136 91" fill="none" xmlns="http://www.w3.org/2000/svg">
<g filter="url(#filter0_d_404_2957)">
<path d="M12.359 2H123.641C127.153 2 130 4.84707 130 8.35897V75.1282C130 78.6403 127.153 81.4872 123.641 81.4872H12.359C8.84707 81.4872 6 78.6403 6 75.1282V8.35897C6 4.84707 8.84707 2 12.359 2Z" fill="#0E4595"/>
<path d="M52.6114 57.4392L57.9149 26.3183H66.3978L61.0904 57.4392H52.6114ZM91.7365 26.9892C90.0562 26.3587 87.4224 25.6821 84.1341 25.6821C75.7521 25.6821 69.8478 29.9029 69.7978 35.9523C69.7502 40.4243 74.0128 42.9189 77.2301 44.4076C80.5322 45.9329 81.642 46.9057 81.6264 48.2679C81.6056 50.3538 78.9897 51.3069 76.5516 51.3069C73.1564 51.3069 71.3527 50.8352 68.5668 49.6733L67.4737 49.1789L66.2831 56.1456C68.2644 57.0142 71.9283 57.7668 75.7323 57.8058C84.6491 57.8058 90.4374 53.6333 90.5035 47.1732C90.5352 43.633 88.2753 40.9389 83.3813 38.7177C80.4164 37.2782 78.6006 36.3174 78.6199 34.8597C78.6199 33.5661 80.1568 32.1827 83.4777 32.1827C86.2516 32.1398 88.2612 32.7447 89.8268 33.3751L90.5868 33.7343L91.7365 26.9892ZM113.565 26.3179H107.01C104.98 26.3179 103.46 26.8722 102.569 28.8987L89.9708 57.4187H98.8783C98.8783 57.4187 100.335 53.5837 100.664 52.742C101.638 52.742 110.291 52.7553 111.528 52.7553C111.782 53.8448 112.56 57.4187 112.56 57.4187H120.431L113.565 26.3169V26.3179ZM103.166 46.4138C103.867 44.6207 106.545 37.7143 106.545 37.7143C106.495 37.7972 107.241 35.9124 107.67 34.744L108.243 37.4273C108.243 37.4273 109.868 44.856 110.207 46.4138H103.166ZM45.4101 26.3179L37.1053 47.5409L36.2203 43.228C34.6743 38.2564 29.8574 32.87 24.4724 30.1733L32.066 57.3897L41.041 57.3796L54.3955 26.3175H45.4101" fill="white"/>
<path d="M29.3564 26.3167H15.6781L15.5698 26.9642C26.2113 29.5402 33.2525 35.7655 36.1761 43.2447L33.2017 28.9434C32.6882 26.9729 31.1991 26.3849 29.3567 26.316" fill="#F2AE14"/>
</g>
<defs>
<filter id="filter0_d_404_2957" x="0.7" y="0.7" width="134.6" height="90.0872" filterUnits="userSpaceOnUse" color-interpolation-filters="sRGB">
<feFlood flood-opacity="0" result="BackgroundImageFix"/>
<feColorMatrix in="SourceAlpha" type="matrix" values="0 0 0 0 0 0 0 0 0 0 0 0 0 0 0 0 0 0 127 0" result="hardAlpha"/>
<feOffset dy="4"/>
<feGaussianBlur stdDeviation="2.65"/>
<feComposite in2="hardAlpha" operator="out"/>
<feColorMatrix type="matrix" values="0 0 0 0 0 0 0 0 0 0 0 0 0 0 0 0 0 0 1 0"/>
<feBlend mode="normal" in2="BackgroundImageFix" result="effect1_dropShadow_404_2957"/>
<feBlend mode="normal" in="SourceGraphic" in2="effect1_dropShadow_404_2957" result="shape"/>
</filter>
</defs>
</svg>
