<svg width="88" height="88" viewBox="0 0 88 88" fill="none" xmlns="http://www.w3.org/2000/svg">
<path d="M3.88226 30.5002C6.37473 30.5002 7.71667 29.1096 7.71667 26.5679V15.2501C7.71667 10.2628 10.4008 7.72111 15.1939 7.72111H26.7928C29.2853 7.72111 30.6753 6.33015 30.6753 3.83651C30.6753 1.39076 29.2853 0 26.7928 0H15.0499C5.08064 0 0 4.93959 0 14.8186V26.5679C0 29.1096 1.39 30.5002 3.88226 30.5002ZM84.1173 30.5002C86.6572 30.5002 88 29.1096 88 26.5679V14.8186C88 4.93959 83.0149 0 72.9497 0H61.2546C58.7143 0 57.3243 1.39076 57.3243 3.83651C57.3243 6.33015 58.7143 7.72111 61.2546 7.72111H72.8538C77.551 7.72111 80.2829 10.2628 80.2829 15.2501V26.5679C80.2829 29.1096 81.6729 30.5002 84.1173 30.5002ZM41.9388 39.8519V23.115C41.9388 21.9641 41.0282 21.0049 39.8298 21.0049H23.1502C21.952 21.0049 21.0412 21.9641 21.0412 23.115V39.8519C21.0412 41.0028 21.952 41.914 23.1502 41.914H39.8298C41.0282 41.914 41.9388 41.0028 41.9388 39.8519ZM50.2308 25.1771H62.7884V37.7417H50.2308V25.1771ZM59.1458 34.0971V28.8698H53.9214V34.0971H59.1458ZM34.1262 34.0971V28.8698H28.8538V34.0971H34.1262ZM25.2112 50.2583H37.7688V62.8229H25.2112V50.2583ZM66.3353 51.8889V46.6616H61.1109V51.8889H66.3353ZM51.9083 51.8889V46.6616H46.6839V51.8889H51.9083ZM34.1262 59.1302V53.9029H28.8538V59.1302H34.1262ZM59.1458 59.1302V53.9029H53.8733V59.1302H59.1458ZM61.2546 88H72.9497C83.0149 88 88 83.0125 88 73.1336V61.4323C88 58.8906 86.61 57.4998 84.1173 57.4998C81.6251 57.4998 80.2829 58.8906 80.2829 61.4323V72.7499C80.2829 77.7374 77.551 80.2791 72.8538 80.2791H61.2546C58.7143 80.2791 57.3243 81.6699 57.3243 84.1635C57.3243 86.6092 58.7143 88 61.2546 88ZM15.0499 88H26.7928C29.2853 88 30.6753 86.6092 30.6753 84.1635C30.6753 81.6699 29.2853 80.2791 26.7928 80.2791H15.1939C10.4008 80.2791 7.71667 77.7374 7.71667 72.7499V61.4323C7.71667 58.8906 6.32667 57.4998 3.88226 57.4998C1.34194 57.4998 0 58.8906 0 61.4323V73.1336C0 83.0604 5.08064 88 15.0499 88ZM51.9083 66.3717V61.1444H46.6839V66.3717H51.9083ZM66.3353 66.3717V61.1444H61.1109V66.3717H66.3353ZM66.9584 39.8519V23.115C66.9584 21.9641 66.0475 21.0049 64.8494 21.0049H48.1696C46.9714 21.0049 46.0608 21.9641 46.0608 23.115V39.8519C46.0608 41.0028 46.9714 41.914 48.1696 41.914H64.8494C66.0475 41.914 66.9584 41.0028 66.9584 39.8519ZM25.2112 25.1771H37.7688V37.7417H25.2112V25.1771ZM41.9388 64.885V48.1483C41.9388 46.9974 41.0282 46.0863 39.8298 46.0863H23.1502C21.952 46.0863 21.0412 46.9974 21.0412 48.1483V64.885C21.0412 66.0361 21.952 66.9951 23.1502 66.9951H39.8298C41.0282 66.9951 41.9388 66.0361 41.9388 64.885Z" fill="#CFCFCF"/>
</svg>
