<svg width="82" height="82" viewBox="0 0 82 82" fill="none" xmlns="http://www.w3.org/2000/svg">
<path d="M82 41C82 63.6167 63.6167 82 41 82C18.3833 82 0 63.6167 0 41C0 18.3833 18.3833 -2.74181e-06 41 -2.74181e-06C63.6167 -2.74181e-06 82 18.3833 82 41ZM5.72093 41C5.72093 60.4512 21.5488 76.2791 41 76.2791C60.4512 76.2791 76.2791 60.4512 76.2791 41C76.2791 21.5488 60.4512 5.72093 41 5.72093C21.5488 5.72093 5.72093 21.5488 5.72093 41Z" fill="#837876"/>
<path d="M52 40.9999C52 41.7106 51.7355 42.4213 51.1686 42.9824L37.8279 56.1864C36.7319 57.2712 34.9179 57.2712 33.8219 56.1864C32.726 55.1017 32.726 53.3063 33.8219 52.2215L45.1596 40.9999L33.8219 29.7785C32.726 28.6937 32.726 26.8983 33.8219 25.8136C34.9179 24.7288 36.7319 24.7288 37.8279 25.8136L51.1686 39.0175C51.7355 39.5785 52 40.2892 52 40.9999Z" fill="#837876"/>
</svg>
