<svg width="500" height="147" viewBox="0 0 500 147" fill="none" xmlns="http://www.w3.org/2000/svg">
<path d="M5.291 0H0V119.512H5.291V0Z" fill="black"/>
<path d="M10.582 0H7.93652V119.512H10.582V0Z" fill="black"/>
<path d="M23.8095 0H15.873V119.512H23.8095V0Z" fill="black"/>
<path d="M39.6826 0H29.1006V119.512H39.6826V0Z" fill="black"/>
<path d="M50.2642 0H47.6187V119.512H50.2642V0Z" fill="black"/>
<path d="M55.5552 0H52.9097V119.512H55.5552V0Z" fill="black"/>
<path d="M63.4927 0H58.2017V119.512H63.4927V0Z" fill="black"/>
<path d="M76.7197 0H71.4287V119.512H76.7197V0Z" fill="black"/>
<path d="M84.6562 0H79.3652V119.512H84.6562V0Z" fill="black"/>
<path d="M89.9473 0H87.3018V119.512H89.9473V0Z" fill="black"/>
<path d="M103.174 0H92.5923V119.512H103.174V0Z" fill="black"/>
<path d="M111.111 0H108.466V119.512H111.111V0Z" fill="black"/>
<path d="M124.338 0H116.402V119.512H124.338V0Z" fill="black"/>
<path d="M129.63 0H126.984V119.512H129.63V0Z" fill="black"/>
<path d="M142.856 0H137.565V119.512H142.856V0Z" fill="black"/>
<path d="M153.438 0H145.502V119.512H153.438V0Z" fill="black"/>
<path d="M161.375 0H158.729V119.512H161.375V0Z" fill="black"/>
<path d="M171.957 0H166.666V119.512H171.957V0Z" fill="black"/>
<path d="M177.248 0H174.603V119.512H177.248V0Z" fill="black"/>
<path d="M193.121 0H187.83V119.512H193.121V0Z" fill="black"/>
<path d="M198.413 0H195.767V119.512H198.413V0Z" fill="black"/>
<path d="M206.349 0H203.703V119.512H206.349V0Z" fill="black"/>
<path d="M214.285 0H211.64V119.512H214.285V0Z" fill="black"/>
<path d="M230.158 0H224.867V119.512H230.158V0Z" fill="black"/>
<path d="M235.449 0H232.804V119.512H235.449V0Z" fill="black"/>
<path d="M246.031 0H240.74V119.512H246.031V0Z" fill="black"/>
<path d="M259.259 0H256.613V119.512H259.259V0Z" fill="black"/>
<path d="M272.486 0H261.904V119.512H272.486V0Z" fill="black"/>
<path d="M283.068 0H275.132V119.512H283.068V0Z" fill="black"/>
<path d="M288.359 0H285.714V119.512H288.359V0Z" fill="black"/>
<path d="M293.65 0H291.005V119.512H293.65V0Z" fill="black"/>
<path d="M301.587 0H298.941V119.512H301.587V0Z" fill="black"/>
<path d="M317.46 0H306.878V119.512H317.46V0Z" fill="black"/>
<path d="M330.687 0H320.105V119.512H330.687V0Z" fill="black"/>
<path d="M338.624 0H335.979V119.512H338.624V0Z" fill="black"/>
<path d="M346.561 0H343.915V119.512H346.561V0Z" fill="black"/>
<path d="M354.496 0H349.205V119.512H354.496V0Z" fill="black"/>
<path d="M367.725 0H362.434V119.512H367.725V0Z" fill="black"/>
<path d="M375.661 0H370.37V119.512H375.661V0Z" fill="black"/>
<path d="M386.243 0H378.307V119.512H386.243V0Z" fill="black"/>
<path d="M391.534 0H388.889V119.512H391.534V0Z" fill="black"/>
<path d="M404.762 0H394.18V119.512H404.762V0Z" fill="black"/>
<path d="M412.697 0H407.406V119.512H412.697V0Z" fill="black"/>
<path d="M420.634 0H417.988V119.512H420.634V0Z" fill="black"/>
<path d="M431.216 0H423.279V119.512H431.216V0Z" fill="black"/>
<path d="M444.444 0H436.508V119.512H444.444V0Z" fill="black"/>
<path d="M449.734 0H447.089V119.512H449.734V0Z" fill="black"/>
<path d="M462.962 0H457.671V119.512H462.962V0Z" fill="black"/>
<path d="M470.898 0H465.607V119.512H470.898V0Z" fill="black"/>
<path d="M486.773 0H478.837V119.512H486.773V0Z" fill="black"/>
<path d="M492.062 0H489.417V119.512H492.062V0Z" fill="black"/>
<path d="M500 0H494.709V119.512H500V0Z" fill="black"/>
<path d="M162.195 141.192C161.837 141.187 161.479 141.119 161.121 140.988C160.763 140.857 160.437 140.637 160.141 140.327C159.846 140.015 159.609 139.593 159.43 139.062C159.251 138.528 159.161 137.857 159.161 137.05C159.161 136.278 159.234 135.593 159.379 134.996C159.523 134.397 159.734 133.893 160.009 133.484C160.285 133.072 160.617 132.759 161.006 132.546C161.398 132.333 161.84 132.227 162.332 132.227C162.82 132.227 163.255 132.325 163.636 132.521C164.019 132.714 164.332 132.984 164.573 133.33C164.815 133.677 164.971 134.076 165.042 134.528H164.002C163.905 134.136 163.718 133.81 163.44 133.552C163.161 133.293 162.792 133.164 162.332 133.164C161.655 133.164 161.123 133.458 160.734 134.046C160.347 134.634 160.153 135.459 160.15 136.522H160.218C160.377 136.281 160.566 136.075 160.785 135.904C161.006 135.731 161.251 135.597 161.518 135.504C161.785 135.41 162.067 135.363 162.366 135.363C162.866 135.363 163.323 135.488 163.738 135.738C164.153 135.985 164.485 136.327 164.735 136.765C164.985 137.2 165.11 137.698 165.11 138.261C165.11 138.8 164.989 139.295 164.748 139.744C164.506 140.19 164.167 140.545 163.729 140.809C163.295 141.07 162.783 141.198 162.195 141.192ZM162.195 140.255C162.553 140.255 162.874 140.165 163.158 139.986C163.445 139.807 163.671 139.567 163.836 139.266C164.004 138.965 164.087 138.63 164.087 138.261C164.087 137.9 164.006 137.572 163.844 137.276C163.685 136.978 163.465 136.741 163.184 136.565C162.905 136.388 162.587 136.3 162.229 136.3C161.959 136.3 161.708 136.354 161.475 136.462C161.242 136.567 161.038 136.712 160.861 136.897C160.688 137.082 160.552 137.293 160.452 137.532C160.353 137.768 160.303 138.016 160.303 138.278C160.303 138.624 160.384 138.948 160.546 139.249C160.711 139.55 160.935 139.793 161.219 139.978C161.506 140.163 161.832 140.255 162.195 140.255ZM166.786 141.073V140.306L169.666 137.153C170.005 136.783 170.283 136.462 170.502 136.19C170.72 135.914 170.882 135.656 170.988 135.414C171.095 135.17 171.149 134.914 171.149 134.647C171.149 134.34 171.076 134.075 170.928 133.85C170.783 133.626 170.584 133.452 170.331 133.33C170.078 133.208 169.794 133.147 169.479 133.147C169.144 133.147 168.851 133.217 168.601 133.356C168.354 133.492 168.162 133.684 168.026 133.931C167.892 134.178 167.826 134.468 167.826 134.8H166.82C166.82 134.289 166.938 133.84 167.174 133.454C167.409 133.067 167.73 132.766 168.137 132.55C168.546 132.334 169.005 132.227 169.513 132.227C170.024 132.227 170.478 132.334 170.872 132.55C171.267 132.766 171.577 133.057 171.801 133.424C172.026 133.79 172.138 134.198 172.138 134.647C172.138 134.968 172.08 135.282 171.963 135.589C171.85 135.893 171.651 136.232 171.367 136.607C171.086 136.979 170.695 137.434 170.195 137.971L168.235 140.067V140.136H172.291V141.073H166.786ZM177 141.192C176.438 141.192 175.936 141.096 175.496 140.903C175.059 140.709 174.711 140.441 174.452 140.097C174.196 139.751 174.057 139.349 174.034 138.891H175.108C175.131 139.173 175.228 139.415 175.398 139.62C175.568 139.822 175.791 139.978 176.067 140.089C176.343 140.2 176.648 140.255 176.983 140.255C177.358 140.255 177.691 140.19 177.98 140.059C178.27 139.928 178.497 139.746 178.662 139.513C178.827 139.281 178.909 139.011 178.909 138.704C178.909 138.383 178.83 138.1 178.671 137.856C178.512 137.609 178.279 137.415 177.972 137.276C177.665 137.137 177.29 137.067 176.847 137.067H176.148V136.13H176.847C177.193 136.13 177.497 136.067 177.759 135.942C178.023 135.817 178.229 135.641 178.377 135.414C178.527 135.187 178.603 134.92 178.603 134.613C178.603 134.317 178.537 134.06 178.407 133.842C178.276 133.623 178.091 133.452 177.853 133.33C177.617 133.208 177.338 133.147 177.017 133.147C176.716 133.147 176.432 133.202 176.165 133.313C175.901 133.421 175.685 133.579 175.517 133.786C175.35 133.991 175.259 134.238 175.245 134.528H174.222C174.239 134.07 174.377 133.67 174.635 133.326C174.894 132.979 175.232 132.709 175.649 132.516C176.07 132.323 176.532 132.227 177.034 132.227C177.574 132.227 178.037 132.336 178.424 132.555C178.81 132.771 179.107 133.056 179.314 133.411C179.522 133.766 179.625 134.15 179.625 134.562C179.625 135.053 179.496 135.472 179.238 135.819C178.982 136.165 178.634 136.406 178.193 136.539V136.607C178.745 136.698 179.175 136.932 179.485 137.31C179.794 137.685 179.949 138.15 179.949 138.704C179.949 139.178 179.82 139.604 179.561 139.982C179.306 140.357 178.956 140.653 178.513 140.869C178.07 141.084 177.566 141.192 177 141.192ZM181.692 141.073V140.306L184.573 137.153C184.911 136.783 185.189 136.462 185.408 136.19C185.627 135.914 185.789 135.656 185.894 135.414C186.002 135.17 186.056 134.914 186.056 134.647C186.056 134.34 185.982 134.075 185.834 133.85C185.689 133.626 185.49 133.452 185.238 133.33C184.985 133.208 184.701 133.147 184.385 133.147C184.05 133.147 183.757 133.217 183.507 133.356C183.26 133.492 183.068 133.684 182.932 133.931C182.799 134.178 182.732 134.468 182.732 134.8H181.726C181.726 134.289 181.844 133.84 182.08 133.454C182.316 133.067 182.637 132.766 183.043 132.55C183.452 132.334 183.911 132.227 184.419 132.227C184.931 132.227 185.384 132.334 185.779 132.55C186.174 132.766 186.483 133.057 186.708 133.424C186.932 133.79 187.044 134.198 187.044 134.647C187.044 134.968 186.986 135.282 186.87 135.589C186.756 135.893 186.557 136.232 186.273 136.607C185.992 136.979 185.601 137.434 185.101 137.971L183.141 140.067V140.136H187.198V141.073H181.692ZM191.753 141.192C191.168 141.192 190.651 141.089 190.202 140.881C189.756 140.671 189.408 140.383 189.158 140.016C188.908 139.647 188.784 139.227 188.787 138.755C188.784 138.386 188.857 138.045 189.005 137.732C189.152 137.417 189.354 137.154 189.61 136.944C189.868 136.731 190.157 136.596 190.475 136.539V136.488C190.057 136.38 189.725 136.146 189.478 135.785C189.23 135.421 189.108 135.008 189.111 134.545C189.108 134.102 189.22 133.705 189.448 133.356C189.675 133.006 189.988 132.731 190.385 132.529C190.786 132.327 191.242 132.227 191.753 132.227C192.259 132.227 192.711 132.327 193.108 132.529C193.506 132.731 193.818 133.006 194.046 133.356C194.276 133.705 194.392 134.102 194.395 134.545C194.392 135.008 194.266 135.421 194.016 135.785C193.769 136.146 193.441 136.38 193.032 136.488V136.539C193.347 136.596 193.631 136.731 193.884 136.944C194.137 137.154 194.338 137.417 194.489 137.732C194.64 138.045 194.716 138.386 194.719 138.755C194.716 139.227 194.588 139.647 194.336 140.016C194.086 140.383 193.738 140.671 193.291 140.881C192.848 141.089 192.336 141.192 191.753 141.192ZM191.753 140.255C192.148 140.255 192.489 140.191 192.776 140.063C193.063 139.935 193.284 139.755 193.441 139.522C193.597 139.289 193.676 139.016 193.679 138.704C193.676 138.374 193.591 138.083 193.424 137.83C193.256 137.577 193.027 137.379 192.738 137.234C192.451 137.089 192.122 137.016 191.753 137.016C191.381 137.016 191.049 137.089 190.756 137.234C190.466 137.379 190.238 137.577 190.07 137.83C189.905 138.083 189.824 138.374 189.827 138.704C189.824 139.016 189.899 139.289 190.053 139.522C190.209 139.755 190.432 139.935 190.722 140.063C191.012 140.191 191.355 140.255 191.753 140.255ZM191.753 136.113C192.066 136.113 192.343 136.05 192.584 135.925C192.828 135.8 193.02 135.626 193.159 135.401C193.299 135.177 193.37 134.914 193.372 134.613C193.37 134.317 193.3 134.06 193.164 133.842C193.027 133.62 192.838 133.45 192.597 133.33C192.355 133.208 192.074 133.147 191.753 133.147C191.426 133.147 191.141 133.208 190.897 133.33C190.652 133.45 190.463 133.62 190.33 133.842C190.196 134.06 190.131 134.317 190.134 134.613C190.131 134.914 190.198 135.177 190.334 135.401C190.473 135.626 190.665 135.8 190.909 135.925C191.154 136.05 191.435 136.113 191.753 136.113ZM199.301 141.192C198.739 141.192 198.237 141.096 197.797 140.903C197.359 140.709 197.011 140.441 196.753 140.097C196.497 139.751 196.358 139.349 196.335 138.891H197.409C197.432 139.173 197.528 139.415 197.699 139.62C197.869 139.822 198.092 139.978 198.368 140.089C198.643 140.2 198.949 140.255 199.284 140.255C199.659 140.255 199.991 140.19 200.281 140.059C200.571 139.928 200.798 139.746 200.963 139.513C201.128 139.281 201.21 139.011 201.21 138.704C201.21 138.383 201.131 138.1 200.972 137.856C200.812 137.609 200.579 137.415 200.273 137.276C199.966 137.137 199.591 137.067 199.148 137.067H198.449V136.13H199.148C199.494 136.13 199.798 136.067 200.06 135.942C200.324 135.817 200.53 135.641 200.678 135.414C200.828 135.187 200.903 134.92 200.903 134.613C200.903 134.317 200.838 134.06 200.707 133.842C200.577 133.623 200.392 133.452 200.153 133.33C199.918 133.208 199.639 133.147 199.318 133.147C199.017 133.147 198.733 133.202 198.466 133.313C198.202 133.421 197.986 133.579 197.818 133.786C197.651 133.991 197.56 134.238 197.545 134.528H196.523C196.54 134.07 196.678 133.67 196.936 133.326C197.195 132.979 197.533 132.709 197.95 132.516C198.371 132.323 198.832 132.227 199.335 132.227C199.875 132.227 200.338 132.336 200.724 132.555C201.111 132.771 201.408 133.056 201.615 133.411C201.822 133.766 201.926 134.15 201.926 134.562C201.926 135.053 201.797 135.472 201.538 135.819C201.283 136.165 200.935 136.406 200.494 136.539V136.607C201.045 136.698 201.476 136.932 201.785 137.31C202.095 137.685 202.25 138.15 202.25 138.704C202.25 139.178 202.121 139.604 201.862 139.982C201.606 140.357 201.257 140.653 200.814 140.869C200.371 141.084 199.866 141.192 199.301 141.192ZM206.72 141.192C206.22 141.192 205.77 141.093 205.369 140.894C204.969 140.695 204.648 140.423 204.406 140.076C204.165 139.729 204.033 139.334 204.01 138.891H205.033C205.072 139.286 205.251 139.613 205.57 139.871C205.891 140.127 206.274 140.255 206.72 140.255C207.078 140.255 207.396 140.171 207.675 140.004C207.956 139.836 208.176 139.606 208.335 139.313C208.497 139.018 208.578 138.684 208.578 138.312C208.578 137.931 208.494 137.592 208.327 137.293C208.162 136.992 207.935 136.755 207.645 136.582C207.355 136.408 207.024 136.32 206.652 136.317C206.385 136.315 206.111 136.356 205.829 136.441C205.548 136.523 205.317 136.63 205.135 136.761L204.146 136.641L204.675 132.346H209.209V133.283H205.561L205.254 135.857H205.305C205.484 135.715 205.709 135.597 205.979 135.504C206.249 135.41 206.53 135.363 206.822 135.363C207.356 135.363 207.832 135.491 208.25 135.746C208.67 135.999 209 136.346 209.239 136.786C209.48 137.227 209.601 137.729 209.601 138.295C209.601 138.852 209.476 139.349 209.226 139.786C208.979 140.221 208.638 140.565 208.203 140.817C207.768 141.067 207.274 141.192 206.72 141.192ZM214.021 141.192C213.521 141.192 213.071 141.093 212.67 140.894C212.269 140.695 211.948 140.423 211.707 140.076C211.466 139.729 211.333 139.334 211.311 138.891H212.333C212.373 139.286 212.552 139.613 212.87 139.871C213.191 140.127 213.575 140.255 214.021 140.255C214.379 140.255 214.697 140.171 214.975 140.004C215.257 139.836 215.477 139.606 215.636 139.313C215.798 139.018 215.879 138.684 215.879 138.312C215.879 137.931 215.795 137.592 215.627 137.293C215.463 136.992 215.235 136.755 214.946 136.582C214.656 136.408 214.325 136.32 213.953 136.317C213.686 136.315 213.412 136.356 213.13 136.441C212.849 136.523 212.617 136.63 212.436 136.761L211.447 136.641L211.975 132.346H216.51V133.283H212.862L212.555 135.857H212.606C212.785 135.715 213.01 135.597 213.279 135.504C213.549 135.41 213.831 135.363 214.123 135.363C214.657 135.363 215.133 135.491 215.551 135.746C215.971 135.999 216.301 136.346 216.539 136.786C216.781 137.227 216.902 137.729 216.902 138.295C216.902 138.852 216.777 139.349 216.527 139.786C216.279 140.221 215.939 140.565 215.504 140.817C215.069 141.067 214.575 141.192 214.021 141.192ZM218.594 141.073V140.306L221.475 137.153C221.813 136.783 222.092 136.462 222.31 136.19C222.529 135.914 222.691 135.656 222.796 135.414C222.904 135.17 222.958 134.914 222.958 134.647C222.958 134.34 222.884 134.075 222.736 133.85C222.592 133.626 222.393 133.452 222.14 133.33C221.887 133.208 221.603 133.147 221.288 133.147C220.952 133.147 220.66 133.217 220.41 133.356C220.163 133.492 219.971 133.684 219.834 133.931C219.701 134.178 219.634 134.468 219.634 134.8H218.629C218.629 134.289 218.746 133.84 218.982 133.454C219.218 133.067 219.539 132.766 219.945 132.55C220.354 132.334 220.813 132.227 221.322 132.227C221.833 132.227 222.286 132.334 222.681 132.55C223.076 132.766 223.386 133.057 223.61 133.424C223.834 133.79 223.947 134.198 223.947 134.647C223.947 134.968 223.888 135.282 223.772 135.589C223.658 135.893 223.459 136.232 223.175 136.607C222.894 136.979 222.504 137.434 222.004 137.971L220.043 140.067V140.136H224.1V141.073H218.594ZM228.758 141.192C228.4 141.187 228.042 141.119 227.684 140.988C227.326 140.857 226.999 140.637 226.704 140.327C226.408 140.015 226.171 139.593 225.992 139.062C225.813 138.528 225.724 137.857 225.724 137.05C225.724 136.278 225.796 135.593 225.941 134.996C226.086 134.397 226.296 133.893 226.572 133.484C226.847 133.072 227.18 132.759 227.569 132.546C227.961 132.333 228.403 132.227 228.894 132.227C229.383 132.227 229.817 132.325 230.198 132.521C230.582 132.714 230.894 132.984 231.136 133.33C231.377 133.677 231.533 134.076 231.604 134.528H230.565C230.468 134.136 230.28 133.81 230.002 133.552C229.724 133.293 229.354 133.164 228.894 133.164C228.218 133.164 227.685 133.458 227.296 134.046C226.91 134.634 226.715 135.459 226.712 136.522H226.78C226.94 136.281 227.129 136.075 227.347 135.904C227.569 135.731 227.813 135.597 228.08 135.504C228.347 135.41 228.63 135.363 228.928 135.363C229.428 135.363 229.886 135.488 230.3 135.738C230.715 135.985 231.048 136.327 231.298 136.765C231.548 137.2 231.673 137.698 231.673 138.261C231.673 138.8 231.552 139.295 231.31 139.744C231.069 140.19 230.729 140.545 230.292 140.809C229.857 141.07 229.346 141.198 228.758 141.192ZM228.758 140.255C229.116 140.255 229.437 140.165 229.721 139.986C230.008 139.807 230.234 139.567 230.398 139.266C230.566 138.965 230.65 138.63 230.65 138.261C230.65 137.9 230.569 137.572 230.407 137.276C230.248 136.978 230.028 136.741 229.746 136.565C229.468 136.388 229.15 136.3 228.792 136.3C228.522 136.3 228.271 136.354 228.038 136.462C227.805 136.567 227.6 136.712 227.424 136.897C227.251 137.082 227.114 137.293 227.015 137.532C226.915 137.768 226.866 138.016 226.866 138.278C226.866 138.624 226.947 138.948 227.109 139.249C227.273 139.55 227.498 139.793 227.782 139.978C228.069 140.163 228.394 140.255 228.758 140.255ZM233.621 141.073L237.524 133.352V133.283H233.024V132.346H238.615V133.334L234.729 141.073H233.621ZM242.953 141.192C242.391 141.192 241.89 141.096 241.449 140.903C241.012 140.709 240.664 140.441 240.405 140.097C240.149 139.751 240.01 139.349 239.988 138.891H241.061C241.084 139.173 241.181 139.415 241.351 139.62C241.522 139.822 241.745 139.978 242.02 140.089C242.296 140.2 242.601 140.255 242.936 140.255C243.311 140.255 243.644 140.19 243.934 140.059C244.223 139.928 244.451 139.746 244.615 139.513C244.78 139.281 244.863 139.011 244.863 138.704C244.863 138.383 244.783 138.1 244.624 137.856C244.465 137.609 244.232 137.415 243.925 137.276C243.618 137.137 243.243 137.067 242.8 137.067H242.101V136.13H242.8C243.147 136.13 243.451 136.067 243.712 135.942C243.976 135.817 244.182 135.641 244.33 135.414C244.48 135.187 244.556 134.92 244.556 134.613C244.556 134.317 244.49 134.06 244.36 133.842C244.229 133.623 244.044 133.452 243.806 133.33C243.57 133.208 243.291 133.147 242.97 133.147C242.669 133.147 242.385 133.202 242.118 133.313C241.854 133.421 241.638 133.579 241.47 133.786C241.303 133.991 241.212 134.238 241.198 134.528H240.175C240.192 134.07 240.33 133.67 240.588 133.326C240.847 132.979 241.185 132.709 241.603 132.516C242.023 132.323 242.485 132.227 242.988 132.227C243.527 132.227 243.99 132.336 244.377 132.555C244.763 132.771 245.06 133.056 245.267 133.411C245.475 133.766 245.578 134.15 245.578 134.562C245.578 135.053 245.449 135.472 245.191 135.819C244.935 136.165 244.587 136.406 244.147 136.539V136.607C244.698 136.698 245.128 136.932 245.438 137.31C245.747 137.685 245.902 138.15 245.902 138.704C245.902 139.178 245.773 139.604 245.515 139.982C245.259 140.357 244.909 140.653 244.466 140.869C244.023 141.084 243.519 141.192 242.953 141.192ZM250.543 141.192C250.185 141.187 249.827 141.119 249.469 140.988C249.111 140.857 248.784 140.637 248.489 140.327C248.193 140.015 247.956 139.593 247.777 139.062C247.598 138.528 247.509 137.857 247.509 137.05C247.509 136.278 247.581 135.593 247.726 134.996C247.871 134.397 248.081 133.893 248.357 133.484C248.632 133.072 248.965 132.759 249.354 132.546C249.746 132.333 250.188 132.227 250.679 132.227C251.168 132.227 251.603 132.325 251.983 132.521C252.367 132.714 252.679 132.984 252.921 133.33C253.162 133.677 253.318 134.076 253.39 134.528H252.35C252.253 134.136 252.066 133.81 251.787 133.552C251.509 133.293 251.14 133.164 250.679 133.164C250.003 133.164 249.47 133.458 249.081 134.046C248.695 134.634 248.5 135.459 248.497 136.522H248.566C248.725 136.281 248.914 136.075 249.132 135.904C249.354 135.731 249.598 135.597 249.865 135.504C250.132 135.41 250.415 135.363 250.713 135.363C251.213 135.363 251.671 135.488 252.086 135.738C252.5 135.985 252.833 136.327 253.083 136.765C253.333 137.2 253.458 137.698 253.458 138.261C253.458 138.8 253.337 139.295 253.095 139.744C252.854 140.19 252.515 140.545 252.077 140.809C251.642 141.07 251.131 141.198 250.543 141.192ZM250.543 140.255C250.901 140.255 251.222 140.165 251.506 139.986C251.793 139.807 252.019 139.567 252.184 139.266C252.351 138.965 252.435 138.63 252.435 138.261C252.435 137.9 252.354 137.572 252.192 137.276C252.033 136.978 251.813 136.741 251.532 136.565C251.253 136.388 250.935 136.3 250.577 136.3C250.307 136.3 250.056 136.354 249.823 136.462C249.59 136.567 249.385 136.712 249.209 136.897C249.036 137.082 248.899 137.293 248.8 137.532C248.701 137.768 248.651 138.016 248.651 138.278C248.651 138.624 248.732 138.948 248.894 139.249C249.059 139.55 249.283 139.793 249.567 139.978C249.854 140.163 250.179 140.255 250.543 140.255ZM258.031 141.192C257.673 141.187 257.315 141.119 256.957 140.988C256.599 140.857 256.273 140.637 255.977 140.327C255.682 140.015 255.445 139.593 255.266 139.062C255.087 138.528 254.997 137.857 254.997 137.05C254.997 136.278 255.07 135.593 255.214 134.996C255.359 134.397 255.57 133.893 255.845 133.484C256.121 133.072 256.453 132.759 256.842 132.546C257.234 132.333 257.676 132.227 258.168 132.227C258.656 132.227 259.091 132.325 259.472 132.521C259.855 132.714 260.168 132.984 260.409 133.33C260.651 133.677 260.807 134.076 260.878 134.528H259.838C259.741 134.136 259.554 133.81 259.276 133.552C258.997 133.293 258.628 133.164 258.168 133.164C257.491 133.164 256.959 133.458 256.57 134.046C256.183 134.634 255.989 135.459 255.986 136.522H256.054C256.213 136.281 256.402 136.075 256.621 135.904C256.842 135.731 257.087 135.597 257.354 135.504C257.621 135.41 257.903 135.363 258.202 135.363C258.702 135.363 259.159 135.488 259.574 135.738C259.989 135.985 260.321 136.327 260.571 136.765C260.821 137.2 260.946 137.698 260.946 138.261C260.946 138.8 260.825 139.295 260.584 139.744C260.342 140.19 260.003 140.545 259.565 140.809C259.131 141.07 258.619 141.198 258.031 141.192ZM258.031 140.255C258.389 140.255 258.71 140.165 258.994 139.986C259.281 139.807 259.507 139.567 259.672 139.266C259.839 138.965 259.923 138.63 259.923 138.261C259.923 137.9 259.842 137.572 259.68 137.276C259.521 136.978 259.301 136.741 259.02 136.565C258.741 136.388 258.423 136.3 258.065 136.3C257.795 136.3 257.544 136.354 257.311 136.462C257.078 136.567 256.874 136.712 256.697 136.897C256.524 137.082 256.388 137.293 256.288 137.532C256.189 137.768 256.139 138.016 256.139 138.278C256.139 138.624 256.22 138.948 256.382 139.249C256.547 139.55 256.771 139.793 257.055 139.978C257.342 140.163 257.668 140.255 258.031 140.255ZM262.894 141.073L266.798 133.352V133.283H262.298V132.346H267.889V133.334L264.002 141.073H262.894ZM269.477 141.073V140.306L272.358 137.153C272.696 136.783 272.974 136.462 273.193 136.19C273.412 135.914 273.574 135.656 273.679 135.414C273.787 135.17 273.841 134.914 273.841 134.647C273.841 134.34 273.767 134.075 273.619 133.85C273.474 133.626 273.276 133.452 273.023 133.33C272.77 133.208 272.486 133.147 272.17 133.147C271.835 133.147 271.543 133.217 271.293 133.356C271.045 133.492 270.854 133.684 270.717 133.931C270.584 134.178 270.517 134.468 270.517 134.8H269.511C269.511 134.289 269.629 133.84 269.865 133.454C270.101 133.067 270.422 132.766 270.828 132.55C271.237 132.334 271.696 132.227 272.205 132.227C272.716 132.227 273.169 132.334 273.564 132.55C273.959 132.766 274.268 133.057 274.493 133.424C274.717 133.79 274.83 134.198 274.83 134.647C274.83 134.968 274.771 135.282 274.655 135.589C274.541 135.893 274.342 136.232 274.058 136.607C273.777 136.979 273.386 137.434 272.886 137.971L270.926 140.067V140.136H274.983V141.073H269.477ZM277.016 141.073L280.919 133.352V133.283H276.419V132.346H282.01V133.334L278.124 141.073H277.016ZM284.105 141.073L288.009 133.352V133.283H283.509V132.346H289.1V133.334L285.213 141.073H284.105ZM293.308 141.192C292.723 141.192 292.206 141.089 291.757 140.881C291.311 140.671 290.963 140.383 290.713 140.016C290.463 139.647 290.339 139.227 290.342 138.755C290.339 138.386 290.412 138.045 290.559 137.732C290.707 137.417 290.909 137.154 291.164 136.944C291.423 136.731 291.711 136.596 292.029 136.539V136.488C291.612 136.38 291.279 136.146 291.032 135.785C290.785 135.421 290.663 135.008 290.666 134.545C290.663 134.102 290.775 133.705 291.002 133.356C291.23 133.006 291.542 132.731 291.94 132.529C292.341 132.327 292.796 132.227 293.308 132.227C293.814 132.227 294.265 132.327 294.663 132.529C295.061 132.731 295.373 133.006 295.6 133.356C295.831 133.705 295.947 134.102 295.95 134.545C295.947 135.008 295.821 135.421 295.571 135.785C295.323 136.146 294.995 136.38 294.586 136.488V136.539C294.902 136.596 295.186 136.731 295.439 136.944C295.691 137.154 295.893 137.417 296.044 137.732C296.194 138.045 296.271 138.386 296.274 138.755C296.271 139.227 296.143 139.647 295.89 140.016C295.64 140.383 295.292 140.671 294.846 140.881C294.403 141.089 293.89 141.192 293.308 141.192ZM293.308 140.255C293.703 140.255 294.044 140.191 294.331 140.063C294.618 139.935 294.839 139.755 294.995 139.522C295.152 139.289 295.231 139.016 295.234 138.704C295.231 138.374 295.146 138.083 294.978 137.83C294.811 137.577 294.582 137.379 294.292 137.234C294.005 137.089 293.677 137.016 293.308 137.016C292.936 137.016 292.603 137.089 292.311 137.234C292.021 137.379 291.792 137.577 291.625 137.83C291.46 138.083 291.379 138.374 291.382 138.704C291.379 139.016 291.454 139.289 291.608 139.522C291.764 139.755 291.987 139.935 292.277 140.063C292.566 140.191 292.91 140.255 293.308 140.255ZM293.308 136.113C293.62 136.113 293.897 136.05 294.139 135.925C294.383 135.8 294.575 135.626 294.714 135.401C294.853 135.177 294.924 134.914 294.927 134.613C294.924 134.317 294.855 134.06 294.718 133.842C294.582 133.62 294.393 133.45 294.152 133.33C293.91 133.208 293.629 133.147 293.308 133.147C292.981 133.147 292.696 133.208 292.451 133.33C292.207 133.45 292.018 133.62 291.885 133.842C291.751 134.06 291.686 134.317 291.689 134.613C291.686 134.914 291.752 135.177 291.889 135.401C292.028 135.626 292.22 135.8 292.464 135.925C292.708 136.05 292.99 136.113 293.308 136.113ZM297.907 141.073V140.306L300.788 137.153C301.126 136.783 301.404 136.462 301.623 136.19C301.842 135.914 302.004 135.656 302.109 135.414C302.217 135.17 302.271 134.914 302.271 134.647C302.271 134.34 302.197 134.075 302.049 133.85C301.904 133.626 301.705 133.452 301.452 133.33C301.2 133.208 300.915 133.147 300.6 133.147C300.265 133.147 299.972 133.217 299.722 133.356C299.475 133.492 299.283 133.684 299.147 133.931C299.013 134.178 298.947 134.468 298.947 134.8H297.941C297.941 134.289 298.059 133.84 298.295 133.454C298.53 133.067 298.852 132.766 299.258 132.55C299.667 132.334 300.126 132.227 300.634 132.227C301.146 132.227 301.599 132.334 301.994 132.55C302.388 132.766 302.698 133.057 302.923 133.424C303.147 133.79 303.259 134.198 303.259 134.647C303.259 134.968 303.201 135.282 303.084 135.589C302.971 135.893 302.772 136.232 302.488 136.607C302.207 136.979 301.816 137.434 301.316 137.971L299.356 140.067V140.136H303.413V141.073H297.907ZM307.968 141.192C307.383 141.192 306.866 141.089 306.417 140.881C305.971 140.671 305.623 140.383 305.373 140.016C305.123 139.647 304.999 139.227 305.002 138.755C304.999 138.386 305.072 138.045 305.219 137.732C305.367 137.417 305.569 137.154 305.825 136.944C306.083 136.731 306.371 136.596 306.69 136.539V136.488C306.272 136.38 305.94 136.146 305.692 135.785C305.445 135.421 305.323 135.008 305.326 134.545C305.323 134.102 305.435 133.705 305.663 133.356C305.89 133.006 306.202 132.731 306.6 132.529C307.001 132.327 307.457 132.227 307.968 132.227C308.474 132.227 308.925 132.327 309.323 132.529C309.721 132.731 310.033 133.006 310.261 133.356C310.491 133.705 310.607 134.102 310.61 134.545C310.607 135.008 310.481 135.421 310.231 135.785C309.984 136.146 309.655 136.38 309.246 136.488V136.539C309.562 136.596 309.846 136.731 310.099 136.944C310.352 137.154 310.553 137.417 310.704 137.732C310.854 138.045 310.931 138.386 310.934 138.755C310.931 139.227 310.803 139.647 310.55 140.016C310.3 140.383 309.952 140.671 309.506 140.881C309.063 141.089 308.55 141.192 307.968 141.192ZM307.968 140.255C308.363 140.255 308.704 140.191 308.991 140.063C309.278 139.935 309.499 139.755 309.655 139.522C309.812 139.289 309.891 139.016 309.894 138.704C309.891 138.374 309.806 138.083 309.638 137.83C309.471 137.577 309.242 137.379 308.952 137.234C308.665 137.089 308.337 137.016 307.968 137.016C307.596 137.016 307.263 137.089 306.971 137.234C306.681 137.379 306.452 137.577 306.285 137.83C306.12 138.083 306.039 138.374 306.042 138.704C306.039 139.016 306.114 139.289 306.268 139.522C306.424 139.755 306.647 139.935 306.937 140.063C307.227 140.191 307.57 140.255 307.968 140.255ZM307.968 136.113C308.28 136.113 308.557 136.05 308.799 135.925C309.043 135.8 309.235 135.626 309.374 135.401C309.513 135.177 309.584 134.914 309.587 134.613C309.584 134.317 309.515 134.06 309.379 133.842C309.242 133.62 309.053 133.45 308.812 133.33C308.57 133.208 308.289 133.147 307.968 133.147C307.641 133.147 307.356 133.208 307.111 133.33C306.867 133.45 306.678 133.62 306.545 133.842C306.411 134.06 306.346 134.317 306.349 134.613C306.346 134.914 306.413 135.177 306.549 135.401C306.688 135.626 306.88 135.8 307.124 135.925C307.369 136.05 307.65 136.113 307.968 136.113ZM315.363 141.192C314.777 141.192 314.26 141.089 313.811 140.881C313.365 140.671 313.017 140.383 312.767 140.016C312.517 139.647 312.394 139.227 312.397 138.755C312.394 138.386 312.466 138.045 312.614 137.732C312.762 137.417 312.963 137.154 313.219 136.944C313.478 136.731 313.766 136.596 314.084 136.539V136.488C313.667 136.38 313.334 136.146 313.087 135.785C312.84 135.421 312.718 135.008 312.72 134.545C312.718 134.102 312.83 133.705 313.057 133.356C313.284 133.006 313.597 132.731 313.995 132.529C314.395 132.327 314.851 132.227 315.363 132.227C315.868 132.227 316.32 132.327 316.718 132.529C317.115 132.731 317.428 133.006 317.655 133.356C317.885 133.705 318.002 134.102 318.005 134.545C318.002 135.008 317.875 135.421 317.625 135.785C317.378 136.146 317.05 136.38 316.641 136.488V136.539C316.956 136.596 317.24 136.731 317.493 136.944C317.746 137.154 317.948 137.417 318.098 137.732C318.249 138.045 318.326 138.386 318.328 138.755C318.326 139.227 318.198 139.647 317.945 140.016C317.695 140.383 317.347 140.671 316.901 140.881C316.458 141.089 315.945 141.192 315.363 141.192ZM315.363 140.255C315.757 140.255 316.098 140.191 316.385 140.063C316.672 139.935 316.894 139.755 317.05 139.522C317.206 139.289 317.286 139.016 317.289 138.704C317.286 138.374 317.201 138.083 317.033 137.83C316.865 137.577 316.637 137.379 316.347 137.234C316.06 137.089 315.732 137.016 315.363 137.016C314.99 137.016 314.658 137.089 314.365 137.234C314.076 137.379 313.847 137.577 313.679 137.83C313.515 138.083 313.434 138.374 313.436 138.704C313.434 139.016 313.509 139.289 313.662 139.522C313.818 139.755 314.042 139.935 314.331 140.063C314.621 140.191 314.965 140.255 315.363 140.255ZM315.363 136.113C315.675 136.113 315.952 136.05 316.193 135.925C316.438 135.8 316.63 135.626 316.769 135.401C316.908 135.177 316.979 134.914 316.982 134.613C316.979 134.317 316.909 134.06 316.773 133.842C316.637 133.62 316.448 133.45 316.206 133.33C315.965 133.208 315.684 133.147 315.363 133.147C315.036 133.147 314.75 133.208 314.506 133.33C314.262 133.45 314.073 133.62 313.939 133.842C313.806 134.06 313.74 134.317 313.743 134.613C313.74 134.914 313.807 135.177 313.943 135.401C314.083 135.626 314.274 135.8 314.519 135.925C314.763 136.05 315.044 136.113 315.363 136.113ZM322.91 141.192C322.348 141.192 321.847 141.096 321.406 140.903C320.969 140.709 320.621 140.441 320.362 140.097C320.106 139.751 319.967 139.349 319.945 138.891H321.018C321.041 139.173 321.138 139.415 321.308 139.62C321.479 139.822 321.702 139.978 321.977 140.089C322.253 140.2 322.558 140.255 322.893 140.255C323.268 140.255 323.601 140.19 323.891 140.059C324.18 139.928 324.408 139.746 324.572 139.513C324.737 139.281 324.82 139.011 324.82 138.704C324.82 138.383 324.74 138.1 324.581 137.856C324.422 137.609 324.189 137.415 323.882 137.276C323.575 137.137 323.2 137.067 322.757 137.067H322.058V136.13H322.757C323.104 136.13 323.408 136.067 323.669 135.942C323.933 135.817 324.139 135.641 324.287 135.414C324.437 135.187 324.513 134.92 324.513 134.613C324.513 134.317 324.447 134.06 324.317 133.842C324.186 133.623 324.001 133.452 323.763 133.33C323.527 133.208 323.249 133.147 322.928 133.147C322.626 133.147 322.342 133.202 322.075 133.313C321.811 133.421 321.595 133.579 321.428 133.786C321.26 133.991 321.169 134.238 321.155 134.528H320.132C320.149 134.07 320.287 133.67 320.545 133.326C320.804 132.979 321.142 132.709 321.56 132.516C321.98 132.323 322.442 132.227 322.945 132.227C323.484 132.227 323.947 132.336 324.334 132.555C324.72 132.771 325.017 133.056 325.224 133.411C325.432 133.766 325.535 134.15 325.535 134.562C325.535 135.053 325.406 135.472 325.148 135.819C324.892 136.165 324.544 136.406 324.104 136.539V136.607C324.655 136.698 325.085 136.932 325.395 137.31C325.705 137.685 325.859 138.15 325.859 138.704C325.859 139.178 325.73 139.604 325.472 139.982C325.216 140.357 324.866 140.653 324.423 140.869C323.98 141.084 323.476 141.192 322.91 141.192ZM327.602 141.073V140.306L330.483 137.153C330.821 136.783 331.099 136.462 331.318 136.19C331.537 135.914 331.699 135.656 331.804 135.414C331.912 135.17 331.966 134.914 331.966 134.647C331.966 134.34 331.892 134.075 331.744 133.85C331.599 133.626 331.401 133.452 331.148 133.33C330.895 133.208 330.611 133.147 330.295 133.147C329.96 133.147 329.668 133.217 329.418 133.356C329.17 133.492 328.979 133.684 328.842 133.931C328.709 134.178 328.642 134.468 328.642 134.8H327.636C327.636 134.289 327.754 133.84 327.99 133.454C328.226 133.067 328.547 132.766 328.953 132.55C329.362 132.334 329.821 132.227 330.33 132.227C330.841 132.227 331.294 132.334 331.689 132.55C332.084 132.766 332.393 133.057 332.618 133.424C332.842 133.79 332.955 134.198 332.955 134.647C332.955 134.968 332.896 135.282 332.78 135.589C332.666 135.893 332.467 136.232 332.183 136.607C331.902 136.979 331.511 137.434 331.011 137.971L329.051 140.067V140.136H333.108V141.073H327.602ZM337.817 141.192C337.254 141.192 336.753 141.096 336.312 140.903C335.875 140.709 335.527 140.441 335.268 140.097C335.013 139.751 334.874 139.349 334.851 138.891H335.925C335.947 139.173 336.044 139.415 336.214 139.62C336.385 139.822 336.608 139.978 336.883 140.089C337.159 140.2 337.464 140.255 337.8 140.255C338.175 140.255 338.507 140.19 338.797 140.059C339.087 139.928 339.314 139.746 339.479 139.513C339.643 139.281 339.726 139.011 339.726 138.704C339.726 138.383 339.646 138.1 339.487 137.856C339.328 137.609 339.095 137.415 338.788 137.276C338.481 137.137 338.106 137.067 337.663 137.067H336.964V136.13H337.663C338.01 136.13 338.314 136.067 338.575 135.942C338.839 135.817 339.045 135.641 339.193 135.414C339.344 135.187 339.419 134.92 339.419 134.613C339.419 134.317 339.354 134.06 339.223 133.842C339.092 133.623 338.908 133.452 338.669 133.33C338.433 133.208 338.155 133.147 337.834 133.147C337.533 133.147 337.249 133.202 336.981 133.313C336.717 133.421 336.501 133.579 336.334 133.786C336.166 133.991 336.075 134.238 336.061 134.528H335.038C335.055 134.07 335.193 133.67 335.452 133.326C335.71 132.979 336.048 132.709 336.466 132.516C336.886 132.323 337.348 132.227 337.851 132.227C338.391 132.227 338.854 132.336 339.24 132.555C339.626 132.771 339.923 133.056 340.131 133.411C340.338 133.766 340.442 134.15 340.442 134.562C340.442 135.053 340.312 135.472 340.054 135.819C339.798 136.165 339.45 136.406 339.01 136.539V136.607C339.561 136.698 339.991 136.932 340.301 137.31C340.611 137.685 340.766 138.15 340.766 138.704C340.766 139.178 340.636 139.604 340.378 139.982C340.122 140.357 339.773 140.653 339.33 140.869C338.886 141.084 338.382 141.192 337.817 141.192Z" fill="black"/>
</svg>
