<svg width="35" height="35" viewBox="0 0 35 35" fill="none" xmlns="http://www.w3.org/2000/svg">
<path d="M34.9496 17.4748C34.9496 27.1259 27.1259 34.9496 17.4748 34.9496C7.82371 34.9496 0 27.1259 0 17.4748C0 7.82371 7.82371 0 17.4748 0C27.1259 0 34.9496 7.82371 34.9496 17.4748ZM15.4535 26.7276L28.4187 13.7624C28.8589 13.3221 28.8589 12.6083 28.4187 12.168L26.8243 10.5737C26.3841 10.1333 25.6702 10.1333 25.2299 10.5737L14.6563 21.1472L9.71973 16.2106C9.27948 15.7704 8.56562 15.7704 8.12529 16.2106L6.53093 17.805C6.09067 18.2453 6.09067 18.9591 6.53093 19.3994L13.8591 26.7275C14.2994 27.1678 15.0132 27.1678 15.4535 26.7276Z" fill="#1BE117"/>
</svg>
